<svg width="34" height="34" viewBox="0 0 34 34" fill="none" xmlns="http://www.w3.org/2000/svg">
<path d="M25.8825 6.09967C25.4873 6.09967 25.1008 6.21697 24.7722 6.43674C24.4435 6.6565 24.1873 6.96886 24.0361 7.33431C23.8848 7.69976 23.8452 8.10189 23.9223 8.48985C23.9994 8.87782 24.1898 9.23418 24.4693 9.51389C24.7488 9.79359 25.1049 9.98407 25.4926 10.0612C25.8803 10.1384 26.2822 10.0988 26.6474 9.94743C27.0126 9.79606 27.3247 9.53971 27.5443 9.21082C27.7639 8.88192 27.8812 8.49524 27.8812 8.09967C27.8812 7.56924 27.6706 7.06053 27.2958 6.68546C26.921 6.31039 26.4126 6.09967 25.8825 6.09967ZM33.5439 10.133C33.5115 8.75017 33.2527 7.38201 32.7778 6.08301C32.3543 4.97156 31.6951 3.96514 30.8458 3.13301C30.021 2.27872 29.013 1.6233 27.8978 1.21634C26.6031 0.726609 25.2344 0.461691 23.8506 0.433008C22.0852 0.333008 21.5189 0.333008 16.9887 0.333008C12.4585 0.333008 11.8923 0.333008 10.1268 0.433008C8.74303 0.461691 7.3743 0.726609 6.07963 1.21634C4.96653 1.62742 3.95932 2.28228 3.13168 3.13301C2.27798 3.9583 1.62302 4.96707 1.21634 6.08301C0.726946 7.37858 0.462212 8.74826 0.433549 10.133C0.333618 11.8997 0.333618 12.4663 0.333618 16.9997C0.333618 21.533 0.333618 22.0997 0.433549 23.8663C0.462212 25.2511 0.726946 26.6208 1.21634 27.9163C1.62302 29.0323 2.27798 30.041 3.13168 30.8663C3.95932 31.7171 4.96653 32.3719 6.07963 32.783C7.3743 33.2727 8.74303 33.5377 10.1268 33.5663C11.8923 33.6663 12.4585 33.6663 16.9887 33.6663C21.5189 33.6663 22.0852 33.6663 23.8506 33.5663C25.2344 33.5377 26.6031 33.2727 27.8978 32.783C29.013 32.376 30.021 31.7206 30.8458 30.8663C31.6989 30.0373 32.3586 29.03 32.7778 27.9163C33.2527 26.6173 33.5115 25.2492 33.5439 23.8663C33.5439 22.0997 33.6438 21.533 33.6438 16.9997C33.6438 12.4663 33.6438 11.8997 33.5439 10.133ZM30.546 23.6663C30.5338 24.7243 30.3424 25.7725 29.9797 26.7663C29.7138 27.4917 29.2866 28.147 28.7306 28.683C28.1903 29.2339 27.5368 29.6604 26.8152 29.933C25.8221 30.2959 24.7746 30.4875 23.7174 30.4997C22.0519 30.583 21.4356 30.5997 17.0553 30.5997C12.675 30.5997 12.0588 30.5997 10.3933 30.4997C9.29555 30.5202 8.20248 30.3511 7.16221 29.9997C6.47232 29.7131 5.84871 29.2877 5.33015 28.7497C4.77735 28.2143 4.35556 27.5583 4.09767 26.833C3.69105 25.8249 3.46552 24.7529 3.43147 23.6663C3.43147 21.9997 3.33154 21.383 3.33154 16.9997C3.33154 12.6163 3.33154 11.9997 3.43147 10.333C3.43893 9.25143 3.63624 8.17958 4.0144 7.16634C4.3076 6.46286 4.75765 5.83577 5.33015 5.33301C5.83615 4.75995 6.46151 4.30483 7.16221 3.99967C8.17742 3.63308 9.24742 3.44147 10.3267 3.43301C11.9922 3.43301 12.6084 3.33301 16.9887 3.33301C21.369 3.33301 21.9852 3.33301 23.6508 3.43301C24.708 3.44514 25.7555 3.63675 26.7486 3.99967C27.5055 4.28076 28.1848 4.73775 28.7306 5.33301C29.2764 5.84497 29.7028 6.4709 29.9797 7.16634C30.3499 8.18123 30.5415 9.25264 30.546 10.333C30.6292 11.9997 30.6459 12.6163 30.6459 16.9997C30.6459 21.383 30.6292 21.9997 30.546 23.6663ZM16.9887 8.44967C15.2996 8.45297 13.6493 8.95722 12.2464 9.8987C10.8436 10.8402 9.75104 12.1767 9.10691 13.7393C8.46279 15.3019 8.29596 17.0205 8.62751 18.6779C8.95907 20.3353 9.77412 21.8572 10.9697 23.0513C12.1653 24.2454 13.6877 25.058 15.3446 25.3866C17.0016 25.7151 18.7186 25.5449 20.2789 24.8972C21.8391 24.2496 23.1726 23.1537 24.1107 21.7481C25.0488 20.3424 25.5494 18.69 25.5494 16.9997C25.5516 15.8748 25.3316 14.7607 24.902 13.7213C24.4723 12.6819 23.8416 11.7377 23.046 10.9431C22.2504 10.1485 21.3056 9.51914 20.2661 9.09122C19.2266 8.66331 18.1128 8.44528 16.9887 8.44967ZM16.9887 22.5497C15.8918 22.5497 14.8195 22.2242 13.9074 21.6143C12.9954 21.0045 12.2845 20.1377 11.8647 19.1236C11.445 18.1094 11.3351 16.9935 11.5491 15.9169C11.7631 14.8403 12.2914 13.8514 13.067 13.0752C13.8426 12.299 14.8309 11.7705 15.9067 11.5563C16.9826 11.3422 18.0977 11.4521 19.1111 11.8721C20.1246 12.2922 20.9908 13.0036 21.6002 13.9163C22.2096 14.829 22.5349 15.902 22.5349 16.9997C22.5349 17.7285 22.3914 18.4502 22.1127 19.1236C21.834 19.7969 21.4254 20.4088 20.9104 20.9241C20.3954 21.4395 19.784 21.8483 19.1111 22.1272C18.4382 22.4061 17.717 22.5497 16.9887 22.5497Z" fill="#424B62"/>
</svg>
