<svg width="65" height="50" viewBox="0 0 65 50" fill="none" xmlns="http://www.w3.org/2000/svg">
<path d="M58.5776 4.93377C62.2684 8.85393 64.25 13.2507 64.25 20.3779C64.25 32.9196 55.4458 44.1605 42.6425 49.7183L39.4426 44.7804C51.393 38.3161 53.7293 29.9275 54.661 24.6385C52.7367 25.6347 50.2177 25.9823 47.7487 25.7529C41.2844 25.1545 36.1889 19.8476 36.1889 13.2507C36.1889 9.92442 37.5103 6.7344 39.8623 4.38238C42.2143 2.03036 45.4043 0.709011 48.7306 0.709011C50.5701 0.72509 52.388 1.10689 54.0785 1.83219C55.769 2.55749 57.2984 3.6118 58.5776 4.93377ZM22.7442 4.93377C26.4351 8.85393 28.4167 13.2507 28.4167 20.3779C28.4167 32.9196 19.6124 44.1605 6.80916 49.7183L3.60925 44.7804C15.5597 38.3161 17.896 29.9275 18.8277 24.6385C16.9034 25.6347 14.3843 25.9823 11.9154 25.7529C5.45108 25.1545 0.355583 19.8476 0.355583 13.2507C0.355583 9.92442 1.67693 6.7344 4.02895 4.38238C6.38097 2.03036 9.57099 0.709011 12.8973 0.709011C14.7367 0.72509 16.5546 1.10689 18.2452 1.83219C19.9357 2.55749 21.465 3.6118 22.7442 4.93377Z" fill="#8A9BC9"/>
</svg>
