<svg width="1027" height="540" viewBox="0 0 1027 540" fill="none" xmlns="http://www.w3.org/2000/svg">
<path d="M75 391.041C111.004 382.484 145.259 365.766 177.585 348.655C275.534 296.806 362.678 228.255 454.273 167.001C500.794 135.891 548.796 105.703 601.558 85.3651C609.562 82.2795 631.586 71.4552 641.34 76.1742C642.373 76.6739 626.714 154.755 626.254 158.675C620.774 205.401 614.025 255.91 618.543 303.025C619.015 307.945 619.587 316.364 626.589 316.217C639.216 315.951 654.551 308.018 666.93 305.296C688.268 300.604 709.494 295.784 731.186 292.861C738.733 291.844 756.502 286.446 764.04 290.266C767.972 292.259 771.254 310.092 772.756 313.406C788.774 348.744 813.262 382.703 839.358 411.693C870.719 446.534 904.803 465 952 465" stroke="#8A9BC9" stroke-opacity="0.07" stroke-width="149" stroke-linecap="round"/>
</svg>
