<svg width="1011" height="1643" viewBox="0 0 1011 1643" fill="none" xmlns="http://www.w3.org/2000/svg">
<path d="M444.075 96C461.882 97.6959 478.58 106.331 493.358 116.021C561.925 160.983 615.68 250.207 650.187 322.133C685.769 396.297 698.391 482.18 704.603 563.41C711.631 655.318 711.095 746.689 692.283 837.284C659.879 993.332 569.507 1144.77 428.161 1224.87C365.634 1260.3 293.128 1279.65 221.793 1285.96C192.752 1288.52 145.322 1293.61 121.689 1271.07C87.8834 1238.82 91.2687 1169.89 109.881 1131.18C147.765 1052.38 270.711 1062.1 340.378 1079.07C474.29 1111.71 590.431 1205.84 687.919 1299.3C768.844 1376.89 840.047 1463.92 915.335 1546.74" stroke="#8A9BC9" stroke-opacity="0.07" stroke-width="191" stroke-linecap="round"/>
</svg>
