<svg width="853" height="389" viewBox="0 0 853 389" fill="none" xmlns="http://www.w3.org/2000/svg">
<path d="M35 206.97C37.3616 191.491 55.5295 173.656 66.7432 160.425C81.9084 142.533 100.644 125.745 123.999 112.032C138.726 103.384 154.222 97.2548 173.377 93.9998C198.276 89.7686 192.949 133.815 193.246 141.16C195.023 185.199 189.716 229.747 194.186 273.704C195.175 283.421 205.074 298.592 224.401 293.431C233.855 290.906 237.822 282.868 241.214 277.248C251.796 259.715 259.232 241.292 266.491 223.075C281.818 184.605 285.248 144.325 303.289 106.329C307.867 96.6889 313.535 75.0519 329.154 69.6488C335.134 67.5803 346.87 66.8425 351.374 70.7277C359.533 77.7636 357.979 90.4566 358.781 98.6234C360.825 119.427 361.145 140.279 360.78 161.119C360.469 178.841 358.17 196.648 359.251 214.367C359.633 220.625 358.13 231.725 365.13 236.869C373.264 242.847 377.465 236.754 380.884 231.783C407.329 193.334 420.151 150.717 433.789 109.72C440.646 89.1071 445.762 67.646 463.416 49.6903C465.415 47.6575 478.918 32.7909 485.754 35.2801C498.422 39.8931 498.931 67.6 499.627 74.5807C504.373 122.16 497.569 169.89 496.453 217.45C496.007 236.42 493.535 256.689 499.509 275.399C500.132 277.35 504.782 293.906 511.619 289.27C531.634 275.699 541.904 253.305 554.649 236.715C559.937 229.831 564.893 219.919 575.693 215.986C580.236 214.331 585.234 211.822 590.389 211.208C601.178 209.922 597.872 224.527 597.914 228.392C598.114 246.935 596.771 265.553 599.559 284.03C600.265 288.704 600.765 299.011 610.728 299.827C628.027 301.244 641.345 292.268 652.465 284.723C667.188 274.734 680.429 263.915 696.435 254.747C700.985 252.141 709.053 245.808 715.951 245.808C721.321 245.808 727.797 268.422 728.649 271.084C735.191 291.524 738.902 314.183 757.923 331.73C771.801 344.532 797.234 347.951 818 354" stroke="#8A9BC9" stroke-opacity="0.07" stroke-width="69" stroke-linecap="round"/>
</svg>
