<svg width="270" height="237" viewBox="0 0 270 237" fill="none" xmlns="http://www.w3.org/2000/svg">
<path d="M21 102.16C22.1082 88.3069 31.4967 75.432 39.4827 64.672C51.6495 48.2788 67.0907 34.3487 86.571 27.4455C104.578 21.0645 124.579 21.7448 143.39 22.4166C169.016 23.3318 193.5 30.2609 215.362 43.9035C228.68 52.2144 243.356 65.0401 247.037 81.0648C250.952 98.1043 244.082 112.214 233.387 125.279C215.277 147.405 192.699 167.5 168.6 182.883C153.993 192.206 133.726 203.182 115.569 201.039C87.3223 197.705 90.1387 149.369 100.286 131.81C112.71 110.313 146.031 97.1077 169.123 109.736C195.742 124.293 213.579 157.046 228.554 182.099C234.923 192.753 242.413 204.069 247.886 215.015" stroke="white" stroke-opacity="0.07" stroke-width="42" stroke-linecap="round"/>
</svg>
