<svg width="265" height="250" viewBox="0 0 265 250" fill="none" xmlns="http://www.w3.org/2000/svg">
<path d="M35 215C35 210.5 35.073 206.094 35.7822 201.647C39.4433 178.687 47.422 155.515 55.3761 134.484C65.8872 106.692 80.3634 82.8557 97.497 61.1889C104.073 52.8724 110.834 42.007 119.085 36.1637C125.965 31.2921 127.791 42.9005 128.472 49.1214C131.472 76.5586 127.298 104.097 127.298 131.517C127.298 135.05 126.998 141.438 128.706 144.524C131.59 149.733 138.792 141.399 140.674 139.133C151.169 126.497 159.76 111.117 168.833 96.8968C173.159 90.1166 177.876 81.0646 184.125 76.7184C186.609 74.9907 186.276 80.2174 186.276 81.9609C186.276 98.1229 180.809 113.468 176.655 128.45C175.916 131.114 162.625 173.362 167.19 175.286C170.899 176.849 177.645 171.008 180.722 169.153C186.652 165.578 192.447 162.501 198.869 160.696C205.196 158.918 205.542 163.498 206.065 170.934C206.674 179.599 208.235 187.761 211.853 195.217C213.612 198.843 217.425 202.971 220.848 203.427C223.65 203.8 229.096 207.117 230 210.549" stroke="#8A9BC9" stroke-opacity="0.07" stroke-width="69" stroke-linecap="round"/>
</svg>
