<svg width="36" height="29" viewBox="0 0 36 29" fill="none" xmlns="http://www.w3.org/2000/svg">
<path d="M35.3624 4.00033C34.08 4.58366 32.6976 4.96699 31.2653 5.15033C32.7309 4.26699 33.8635 2.86699 34.3964 1.18366C33.0141 2.01699 31.4818 2.60033 29.8662 2.93366C28.5505 1.50033 26.7018 0.666992 24.6032 0.666992C20.6893 0.666992 17.4915 3.86699 17.4915 7.81699C17.4915 8.38366 17.5581 8.93366 17.6747 9.45033C11.7455 9.15033 6.46583 6.30033 2.9516 1.98366C2.33536 3.03366 1.98561 4.26699 1.98561 5.56699C1.98561 8.05033 3.23474 10.2503 5.16673 11.5003C3.98422 11.5003 2.88498 11.167 1.91899 10.667V10.717C1.91899 14.1837 4.38394 17.0837 7.64834 17.7337C6.60028 18.0207 5.49999 18.0606 4.43391 17.8503C4.88627 19.2711 5.77221 20.5143 6.96718 21.4052C8.16214 22.2961 9.60606 22.7898 11.0959 22.817C8.57042 24.8177 5.43987 25.8992 2.21878 25.8837C1.65251 25.8837 1.08623 25.8503 0.519958 25.7837C3.68443 27.817 7.44848 29.0003 11.479 29.0003C24.6032 29.0003 31.8149 18.1003 31.8149 8.65033C31.8149 8.33366 31.8149 8.03366 31.7982 7.71699C33.1973 6.71699 34.3964 5.45033 35.3624 4.00033Z" fill="#424B62"/>
</svg>
