<svg width="254" height="24" viewBox="0 0 254 24" fill="none" xmlns="http://www.w3.org/2000/svg">
<path d="M7.512 19.288C6.168 19.288 4.88 19.112 3.648 18.76C2.416 18.392 1.424 17.92 0.672 17.344L1.992 14.416C2.712 14.928 3.56 15.352 4.536 15.688C5.528 16.008 6.528 16.168 7.536 16.168C8.304 16.168 8.92 16.096 9.384 15.952C9.864 15.792 10.216 15.576 10.44 15.304C10.664 15.032 10.776 14.72 10.776 14.368C10.776 13.92 10.6 13.568 10.248 13.312C9.896 13.04 9.432 12.824 8.856 12.664C8.28 12.488 7.64 12.328 6.936 12.184C6.248 12.024 5.552 11.832 4.848 11.608C4.16 11.384 3.528 11.096 2.952 10.744C2.376 10.392 1.904 9.928 1.536 9.352C1.184 8.776 1.008 8.04 1.008 7.144C1.008 6.184 1.264 5.312 1.776 4.528C2.304 3.728 3.088 3.096 4.128 2.632C5.184 2.152 6.504 1.912 8.088 1.912C9.144 1.912 10.184 2.04 11.208 2.296C12.232 2.536 13.136 2.904 13.92 3.4L12.72 6.352C11.936 5.904 11.152 5.576 10.368 5.368C9.584 5.144 8.816 5.032 8.064 5.032C7.312 5.032 6.696 5.12 6.216 5.296C5.736 5.472 5.392 5.704 5.184 5.992C4.976 6.264 4.872 6.584 4.872 6.952C4.872 7.384 5.048 7.736 5.4 8.008C5.752 8.264 6.216 8.472 6.792 8.632C7.368 8.792 8 8.952 8.688 9.112C9.392 9.272 10.088 9.456 10.776 9.664C11.48 9.872 12.12 10.152 12.696 10.504C13.272 10.856 13.736 11.32 14.088 11.896C14.456 12.472 14.64 13.2 14.64 14.08C14.64 15.024 14.376 15.888 13.848 16.672C13.32 17.456 12.528 18.088 11.472 18.568C10.432 19.048 9.112 19.288 7.512 19.288ZM20.8727 8.968H28.9607V11.992H20.8727V8.968ZM21.1607 15.88H30.3047V19H17.2967V2.2H29.9927V5.32H21.1607V15.88ZM41.5583 19.288C40.2303 19.288 38.9983 19.072 37.8623 18.64C36.7423 18.208 35.7663 17.6 34.9342 16.816C34.1183 16.032 33.4783 15.112 33.0143 14.056C32.5663 13 32.3423 11.848 32.3423 10.6C32.3423 9.352 32.5663 8.2 33.0143 7.144C33.4783 6.088 34.1263 5.168 34.9583 4.384C35.7903 3.6 36.7663 2.992 37.8863 2.56C39.0063 2.128 40.2223 1.912 41.5343 1.912C42.8623 1.912 44.0782 2.128 45.1823 2.56C46.3023 2.992 47.2703 3.6 48.0863 4.384C48.9183 5.168 49.5663 6.088 50.0303 7.144C50.4943 8.184 50.7263 9.336 50.7263 10.6C50.7263 11.848 50.4943 13.008 50.0303 14.08C49.5663 15.136 48.9183 16.056 48.0863 16.84C47.2703 17.608 46.3023 18.208 45.1823 18.64C44.0782 19.072 42.8702 19.288 41.5583 19.288ZM41.5343 15.976C42.2863 15.976 42.9743 15.848 43.5983 15.592C44.2383 15.336 44.7983 14.968 45.2783 14.488C45.7583 14.008 46.1263 13.44 46.3823 12.784C46.6543 12.128 46.7903 11.4 46.7903 10.6C46.7903 9.8 46.6543 9.072 46.3823 8.416C46.1263 7.76 45.7583 7.192 45.2783 6.712C44.8143 6.232 44.2623 5.864 43.6223 5.608C42.9823 5.352 42.2863 5.224 41.5343 5.224C40.7823 5.224 40.0863 5.352 39.4463 5.608C38.8223 5.864 38.2703 6.232 37.7903 6.712C37.3103 7.192 36.9343 7.76 36.6623 8.416C36.4063 9.072 36.2783 9.8 36.2783 10.6C36.2783 11.384 36.4063 12.112 36.6623 12.784C36.9343 13.44 37.3023 14.008 37.7663 14.488C38.2463 14.968 38.8063 15.336 39.4463 15.592C40.0863 15.848 40.7823 15.976 41.5343 15.976ZM53.6483 19V2.2H56.8643L64.0163 14.056H62.3123L69.3443 2.2H72.5363L72.5843 19H68.9363L68.9123 7.792H69.5843L63.9683 17.224H62.2163L56.4803 7.792H57.2963V19H53.6483ZM84.2261 19V16.48L83.9861 15.928V11.416C83.9861 10.616 83.7381 9.992 83.2421 9.544C82.7621 9.096 82.0181 8.872 81.0101 8.872C80.3221 8.872 79.6421 8.984 78.9701 9.208C78.3141 9.416 77.7541 9.704 77.2901 10.072L75.9461 7.456C76.6501 6.96 77.4981 6.576 78.4901 6.304C79.4821 6.032 80.4901 5.896 81.5141 5.896C83.4821 5.896 85.0101 6.36 86.0981 7.288C87.1861 8.216 87.7301 9.664 87.7301 11.632V19H84.2261ZM80.2901 19.192C79.2821 19.192 78.4181 19.024 77.6981 18.688C76.9781 18.336 76.4261 17.864 76.0421 17.272C75.6581 16.68 75.4661 16.016 75.4661 15.28C75.4661 14.512 75.6501 13.84 76.0181 13.264C76.4021 12.688 77.0021 12.24 77.8181 11.92C78.6341 11.584 79.6981 11.416 81.0101 11.416H84.4421V13.6H81.4181C80.5381 13.6 79.9301 13.744 79.5941 14.032C79.2741 14.32 79.1141 14.68 79.1141 15.112C79.1141 15.592 79.2981 15.976 79.6661 16.264C80.0501 16.536 80.5701 16.672 81.2261 16.672C81.8501 16.672 82.4101 16.528 82.9061 16.24C83.4021 15.936 83.7621 15.496 83.9861 14.92L84.5621 16.648C84.2901 17.48 83.7941 18.112 83.0741 18.544C82.3541 18.976 81.4261 19.192 80.2901 19.192ZM95.4626 19.192C94.3586 19.192 93.2946 19.064 92.2706 18.808C91.2626 18.536 90.4626 18.2 89.8706 17.8L91.1186 15.112C91.7106 15.48 92.4066 15.784 93.2066 16.024C94.0226 16.248 94.8226 16.36 95.6066 16.36C96.4706 16.36 97.0786 16.256 97.4306 16.048C97.7986 15.84 97.9826 15.552 97.9826 15.184C97.9826 14.88 97.8386 14.656 97.5506 14.512C97.2786 14.352 96.9106 14.232 96.4466 14.152C95.9826 14.072 95.4706 13.992 94.9106 13.912C94.3666 13.832 93.8146 13.728 93.2546 13.6C92.6946 13.456 92.1826 13.248 91.7186 12.976C91.2546 12.704 90.8786 12.336 90.5906 11.872C90.3186 11.408 90.1826 10.808 90.1826 10.072C90.1826 9.256 90.4146 8.536 90.8786 7.912C91.3586 7.288 92.0466 6.8 92.9426 6.448C93.8386 6.08 94.9106 5.896 96.1586 5.896C97.0386 5.896 97.9346 5.992 98.8466 6.184C99.7586 6.376 100.519 6.656 101.127 7.024L99.8786 9.688C99.2546 9.32 98.6226 9.072 97.9826 8.944C97.3586 8.8 96.7506 8.728 96.1586 8.728C95.3266 8.728 94.7186 8.84 94.3346 9.064C93.9506 9.288 93.7586 9.576 93.7586 9.928C93.7586 10.248 93.8946 10.488 94.1666 10.648C94.4546 10.808 94.8306 10.936 95.2946 11.032C95.7586 11.128 96.2626 11.216 96.8066 11.296C97.3666 11.36 97.9266 11.464 98.4866 11.608C99.0466 11.752 99.5506 11.96 99.9986 12.232C100.463 12.488 100.839 12.848 101.127 13.312C101.415 13.76 101.559 14.352 101.559 15.088C101.559 15.888 101.319 16.6 100.839 17.224C100.359 17.832 99.6626 18.312 98.7506 18.664C97.8546 19.016 96.7586 19.192 95.4626 19.192ZM109.149 19.192C107.629 19.192 106.445 18.808 105.597 18.04C104.749 17.256 104.325 16.096 104.325 14.56V3.232H108.069V14.512C108.069 15.056 108.213 15.48 108.501 15.784C108.789 16.072 109.181 16.216 109.677 16.216C110.269 16.216 110.773 16.056 111.189 15.736L112.197 18.376C111.813 18.648 111.349 18.856 110.805 19C110.277 19.128 109.725 19.192 109.149 19.192ZM102.333 9.256V6.376H111.285V9.256H102.333ZM120.308 19.192C118.836 19.192 117.54 18.904 116.42 18.328C115.316 17.752 114.46 16.968 113.852 15.976C113.244 14.968 112.94 13.824 112.94 12.544C112.94 11.248 113.236 10.104 113.828 9.112C114.436 8.104 115.26 7.32 116.3 6.76C117.34 6.184 118.516 5.896 119.828 5.896C121.092 5.896 122.228 6.168 123.236 6.712C124.26 7.24 125.068 8.008 125.66 9.016C126.252 10.008 126.548 11.2 126.548 12.592C126.548 12.736 126.54 12.904 126.524 13.096C126.508 13.272 126.492 13.44 126.476 13.6H115.988V11.416H124.508L123.068 12.064C123.068 11.392 122.932 10.808 122.66 10.312C122.388 9.816 122.012 9.432 121.532 9.16C121.052 8.872 120.492 8.728 119.852 8.728C119.212 8.728 118.644 8.872 118.148 9.16C117.668 9.432 117.292 9.824 117.02 10.336C116.748 10.832 116.612 11.424 116.612 12.112V12.688C116.612 13.392 116.764 14.016 117.068 14.56C117.388 15.088 117.828 15.496 118.388 15.784C118.964 16.056 119.636 16.192 120.404 16.192C121.092 16.192 121.692 16.088 122.204 15.88C122.732 15.672 123.212 15.36 123.644 14.944L125.636 17.104C125.044 17.776 124.3 18.296 123.404 18.664C122.508 19.016 121.476 19.192 120.308 19.192ZM129.041 19V6.088H132.617V9.736L132.113 8.68C132.497 7.768 133.113 7.08 133.961 6.616C134.809 6.136 135.841 5.896 137.057 5.896V9.352C136.897 9.336 136.753 9.328 136.625 9.328C136.497 9.312 136.361 9.304 136.217 9.304C135.193 9.304 134.361 9.6 133.721 10.192C133.097 10.768 132.785 11.672 132.785 12.904V19H129.041ZM141.36 23.848C140.688 23.848 140.024 23.744 139.368 23.536C138.712 23.328 138.176 23.04 137.76 22.672L139.128 20.008C139.416 20.264 139.744 20.464 140.112 20.608C140.496 20.752 140.872 20.824 141.24 20.824C141.768 20.824 142.184 20.696 142.488 20.44C142.808 20.2 143.096 19.792 143.352 19.216L144.024 17.632L144.312 17.224L148.944 6.088H152.544L146.712 19.792C146.296 20.832 145.816 21.648 145.272 22.24C144.744 22.832 144.152 23.248 143.496 23.488C142.856 23.728 142.144 23.848 141.36 23.848ZM143.568 19.504L137.808 6.088H141.672L146.136 16.888L143.568 19.504ZM157.394 19V5.368H152.018V2.2H166.658V5.368H161.282V19H157.394ZM168.205 19V6.088H171.781V9.736L171.277 8.68C171.661 7.768 172.277 7.08 173.125 6.616C173.973 6.136 175.005 5.896 176.221 5.896V9.352C176.061 9.336 175.917 9.328 175.789 9.328C175.661 9.312 175.525 9.304 175.381 9.304C174.357 9.304 173.525 9.6 172.885 10.192C172.261 10.768 171.949 11.672 171.949 12.904V19H168.205ZM185.523 19V16.48L185.283 15.928V11.416C185.283 10.616 185.035 9.992 184.539 9.544C184.059 9.096 183.315 8.872 182.307 8.872C181.619 8.872 180.939 8.984 180.267 9.208C179.611 9.416 179.051 9.704 178.587 10.072L177.243 7.456C177.947 6.96 178.795 6.576 179.787 6.304C180.779 6.032 181.787 5.896 182.811 5.896C184.779 5.896 186.307 6.36 187.395 7.288C188.483 8.216 189.027 9.664 189.027 11.632V19H185.523ZM181.587 19.192C180.579 19.192 179.715 19.024 178.995 18.688C178.275 18.336 177.723 17.864 177.339 17.272C176.955 16.68 176.763 16.016 176.763 15.28C176.763 14.512 176.947 13.84 177.315 13.264C177.699 12.688 178.299 12.24 179.115 11.92C179.931 11.584 180.995 11.416 182.307 11.416H185.739V13.6H182.715C181.835 13.6 181.227 13.744 180.891 14.032C180.571 14.32 180.411 14.68 180.411 15.112C180.411 15.592 180.595 15.976 180.963 16.264C181.347 16.536 181.867 16.672 182.523 16.672C183.147 16.672 183.707 16.528 184.203 16.24C184.699 15.936 185.059 15.496 185.283 14.92L185.859 16.648C185.587 17.48 185.091 18.112 184.371 18.544C183.651 18.976 182.723 19.192 181.587 19.192ZM192.416 19V6.088H196.16V19H192.416ZM194.288 4.288C193.6 4.288 193.04 4.088 192.608 3.688C192.176 3.288 191.96 2.792 191.96 2.2C191.96 1.608 192.176 1.112 192.608 0.711999C193.04 0.311999 193.6 0.111999 194.288 0.111999C194.976 0.111999 195.536 0.303999 195.968 0.688C196.4 1.056 196.616 1.536 196.616 2.128C196.616 2.752 196.4 3.272 195.968 3.688C195.552 4.088 194.992 4.288 194.288 4.288ZM207.482 5.896C208.506 5.896 209.418 6.104 210.218 6.52C211.034 6.92 211.674 7.544 212.138 8.392C212.602 9.224 212.834 10.296 212.834 11.608V19H209.09V12.184C209.09 11.144 208.858 10.376 208.394 9.88C207.946 9.384 207.306 9.136 206.474 9.136C205.882 9.136 205.346 9.264 204.866 9.52C204.402 9.76 204.034 10.136 203.762 10.648C203.506 11.16 203.378 11.816 203.378 12.616V19H199.634V6.088H203.21V9.664L202.538 8.584C203.002 7.72 203.666 7.056 204.53 6.592C205.394 6.128 206.378 5.896 207.482 5.896ZM216.228 19V6.088H219.972V19H216.228ZM218.1 4.288C217.412 4.288 216.852 4.088 216.42 3.688C215.988 3.288 215.772 2.792 215.772 2.2C215.772 1.608 215.988 1.112 216.42 0.711999C216.852 0.311999 217.412 0.111999 218.1 0.111999C218.788 0.111999 219.348 0.303999 219.78 0.688C220.212 1.056 220.428 1.536 220.428 2.128C220.428 2.752 220.212 3.272 219.78 3.688C219.364 4.088 218.804 4.288 218.1 4.288ZM231.295 5.896C232.319 5.896 233.231 6.104 234.031 6.52C234.847 6.92 235.487 7.544 235.951 8.392C236.415 9.224 236.647 10.296 236.647 11.608V19H232.903V12.184C232.903 11.144 232.671 10.376 232.207 9.88C231.759 9.384 231.119 9.136 230.287 9.136C229.695 9.136 229.159 9.264 228.679 9.52C228.215 9.76 227.847 10.136 227.575 10.648C227.319 11.16 227.191 11.816 227.191 12.616V19H223.447V6.088H227.023V9.664L226.351 8.584C226.815 7.72 227.479 7.056 228.343 6.592C229.207 6.128 230.191 5.896 231.295 5.896ZM246.206 23.848C244.99 23.848 243.814 23.696 242.678 23.392C241.558 23.104 240.622 22.664 239.87 22.072L241.358 19.384C241.902 19.832 242.59 20.184 243.422 20.44C244.27 20.712 245.102 20.848 245.918 20.848C247.246 20.848 248.206 20.552 248.798 19.96C249.406 19.368 249.71 18.488 249.71 17.32V15.376L249.95 12.136L249.902 8.872V6.088H253.454V16.84C253.454 19.24 252.83 21.008 251.582 22.144C250.334 23.28 248.542 23.848 246.206 23.848ZM245.63 18.376C244.43 18.376 243.342 18.12 242.366 17.608C241.406 17.08 240.63 16.352 240.038 15.424C239.462 14.48 239.174 13.384 239.174 12.136C239.174 10.872 239.462 9.776 240.038 8.848C240.63 7.904 241.406 7.176 242.366 6.664C243.342 6.152 244.43 5.896 245.63 5.896C246.718 5.896 247.678 6.12 248.51 6.568C249.342 7 249.99 7.68 250.454 8.608C250.918 9.52 251.15 10.696 251.15 12.136C251.15 13.56 250.918 14.736 250.454 15.664C249.99 16.576 249.342 17.256 248.51 17.704C247.678 18.152 246.718 18.376 245.63 18.376ZM246.374 15.304C247.03 15.304 247.614 15.176 248.126 14.92C248.638 14.648 249.038 14.272 249.326 13.792C249.614 13.312 249.758 12.76 249.758 12.136C249.758 11.496 249.614 10.944 249.326 10.48C249.038 10 248.638 9.632 248.126 9.376C247.614 9.104 247.03 8.968 246.374 8.968C245.718 8.968 245.134 9.104 244.622 9.376C244.11 9.632 243.702 10 243.398 10.48C243.11 10.944 242.966 11.496 242.966 12.136C242.966 12.76 243.11 13.312 243.398 13.792C243.702 14.272 244.11 14.648 244.622 14.92C245.134 15.176 245.718 15.304 246.374 15.304Z" fill="#424B62"/>
</svg>
